<svg xmlns="http://www.w3.org/2000/svg" xmlns:xlink="http://www.w3.org/1999/xlink" width="500" zoomAndPan="magnify" viewBox="0 0 375 374.999991" height="500" preserveAspectRatio="xMidYMid meet" version="1.0"><defs><clipPath id="7f23ea0488"><path d="M 49 104 L 156 104 L 156 271 L 49 271 Z M 49 104 " clip-rule="nonzero"/></clipPath><clipPath id="3b95482efa"><path d="M 96.695312 284.535156 L 49.070312 106.289062 L 108.484375 90.414062 L 156.109375 268.660156 Z M 96.695312 284.535156 " clip-rule="nonzero"/></clipPath><clipPath id="ae76cdccc0"><path d="M 96.695312 284.535156 L 49.070312 106.289062 L 108.484375 90.414062 L 156.109375 268.660156 Z M 96.695312 284.535156 " clip-rule="nonzero"/></clipPath><clipPath id="90a6d6dee6"><path d="M 134 104 L 241 104 L 241 271 L 134 271 Z M 134 104 " clip-rule="nonzero"/></clipPath><clipPath id="ee725216ec"><path d="M 181.738281 284.535156 L 134.113281 106.289062 L 193.527344 90.414062 L 241.152344 268.660156 Z M 181.738281 284.535156 " clip-rule="nonzero"/></clipPath><clipPath id="09207652f7"><path d="M 181.738281 284.535156 L 134.113281 106.289062 L 193.527344 90.414062 L 241.152344 268.660156 Z M 181.738281 284.535156 " clip-rule="nonzero"/></clipPath><clipPath id="46ae29c47f"><path d="M 219 104 L 326 104 L 326 271 L 219 271 Z M 219 104 " clip-rule="nonzero"/></clipPath><clipPath id="0ace38c700"><path d="M 266.78125 284.535156 L 219.15625 106.289062 L 278.574219 90.414062 L 326.199219 268.660156 Z M 266.78125 284.535156 " clip-rule="nonzero"/></clipPath><clipPath id="c5d4222f2b"><path d="M 266.78125 284.535156 L 219.15625 106.289062 L 278.574219 90.414062 L 326.199219 268.660156 Z M 266.78125 284.535156 " clip-rule="nonzero"/></clipPath><clipPath id="0dc9ae3347"><path d="M 0 189 L 79 189 L 79 285 L 0 285 Z M 0 189 " clip-rule="nonzero"/></clipPath><clipPath id="b8411cb5ef"><path d="M 0.21875 264.214844 L 38.746094 189.570312 L 78.070312 209.867188 L 39.539062 284.511719 Z M 0.21875 264.214844 " clip-rule="nonzero"/></clipPath><clipPath id="d985be79f2"><path d="M 0 15 L 78.238281 15 L 78.238281 81 L 0 81 Z M 0 15 " clip-rule="nonzero"/></clipPath><clipPath id="ddd2c684fd"><path d="M 0.21875 75.214844 L 38.746094 0.570312 L 78.070312 20.867188 L 39.539062 95.511719 Z M 0.21875 75.214844 " clip-rule="nonzero"/></clipPath><clipPath id="306b456cdc"><path d="M 38.753906 0.5625 L 0.222656 75.203125 L 39.546875 95.5 L 78.074219 20.859375 Z M 38.753906 0.5625 " clip-rule="nonzero"/></clipPath><clipPath id="99e68a80b6"><rect x="0" width="79" y="0" height="96"/></clipPath><clipPath id="42fedf3007"><path d="M 297 90 L 375 90 L 375 186 L 297 186 Z M 297 90 " clip-rule="nonzero"/></clipPath><clipPath id="1f3a0e5826"><path d="M 297.089844 165.105469 L 335.617188 90.464844 L 374.9375 110.761719 L 336.410156 185.402344 Z M 297.089844 165.105469 " clip-rule="nonzero"/></clipPath><clipPath id="fbc85aaff9"><path d="M 0 15 L 78 15 L 78 81 L 0 81 Z M 0 15 " clip-rule="nonzero"/></clipPath><clipPath id="442c1887fd"><path d="M 0.0898438 75.105469 L 38.617188 0.464844 L 77.9375 20.761719 L 39.410156 95.402344 Z M 0.0898438 75.105469 " clip-rule="nonzero"/></clipPath><clipPath id="0ba4c8403c"><path d="M 38.621094 0.453125 L 0.09375 75.097656 L 39.414062 95.394531 L 77.941406 20.75 Z M 38.621094 0.453125 " clip-rule="nonzero"/></clipPath><clipPath id="db7d86c489"><rect x="0" width="78" y="0" height="96"/></clipPath></defs><g clip-path="url(#7f23ea0488)"><g clip-path="url(#3b95482efa)"><g clip-path="url(#ae76cdccc0)"><path fill="#b974f4" d="M 49.078125 106.328125 L 80.804688 225.070312 L 80.890625 225.386719 C 89.605469 258 123.109375 277.375 155.722656 268.660156 L 123.996094 149.917969 L 123.910156 149.601562 C 115.195312 116.988281 81.691406 97.613281 49.078125 106.328125 Z M 49.078125 106.328125 " fill-opacity="1" fill-rule="nonzero"/></g></g></g><g clip-path="url(#90a6d6dee6)"><g clip-path="url(#ee725216ec)"><g clip-path="url(#09207652f7)"><path fill="#915dd6" d="M 134.125 106.328125 L 149.988281 165.699219 L 165.847656 225.070312 L 165.933594 225.386719 C 174.648438 258 208.152344 277.375 240.765625 268.660156 L 209.039062 149.917969 L 208.953125 149.601562 C 200.238281 116.988281 166.738281 97.613281 134.125 106.328125 Z M 134.125 106.328125 " fill-opacity="1" fill-rule="nonzero"/></g></g></g><g clip-path="url(#46ae29c47f)"><g clip-path="url(#0ace38c700)"><g clip-path="url(#c5d4222f2b)"><path fill="#5c2e99" d="M 219.167969 106.328125 L 250.894531 225.070312 L 250.976562 225.386719 C 259.691406 258 293.195312 277.375 325.808594 268.660156 L 294.082031 149.917969 L 293.996094 149.601562 C 285.285156 116.988281 251.78125 97.613281 219.167969 106.328125 Z M 219.167969 106.328125 " fill-opacity="1" fill-rule="nonzero"/></g></g></g><g clip-path="url(#0dc9ae3347)"><g clip-path="url(#b8411cb5ef)"><g transform="matrix(1, 0, 0, 1, 0, 189)"><g clip-path="url(#99e68a80b6)"><g clip-path="url(#d985be79f2)"><g clip-path="url(#ddd2c684fd)"><g clip-path="url(#306b456cdc)"><path fill="#d29dff" d="M 59.898438 56.183594 L 78.117188 20.882812 C 56.382812 9.660156 29.667969 18.1875 18.449219 39.921875 L 0.226562 75.222656 C 21.964844 86.441406 48.679688 77.917969 59.898438 56.183594 Z M 59.898438 56.183594 " fill-opacity="1" fill-rule="nonzero"/></g></g></g></g></g></g></g><g clip-path="url(#42fedf3007)"><g clip-path="url(#1f3a0e5826)"><g transform="matrix(1, 0, 0, 1, 297, 90)"><g clip-path="url(#db7d86c489)"><g clip-path="url(#fbc85aaff9)"><g clip-path="url(#442c1887fd)"><g clip-path="url(#0ba4c8403c)"><path fill="#300827" d="M 59.765625 56.074219 L 77.988281 20.773438 C 56.253906 9.554688 29.539062 18.078125 18.320312 39.8125 L 0.0976562 75.117188 C 21.832031 86.335938 48.546875 77.808594 59.765625 56.074219 Z M 59.765625 56.074219 " fill-opacity="1" fill-rule="nonzero"/></g></g></g></g></g></g></g></svg>